<svg xmlns="http://www.w3.org/2000/svg" viewBox="0 0 37.44 36.49"><defs><style>.cls-1{fill:#fff;}</style></defs><title>fog</title><g id="Layer_2" data-name="Layer 2"><g id="icons"><g id="sleet"><path class="cls-1" d="M29,23.4a8.45,8.45,0,1,0-1.9-16.67A9.47,9.47,0,0,0,8.56,9.47c0,.19,0,.38,0,.57A7,7,0,0,0,6.8,9.8a6.8,6.8,0,0,0,0,13.6Z"/><path class="cls-1" d="M14.84,32.1a4.39,4.39,0,1,1-4.38-4.39A4.39,4.39,0,0,1,14.84,32.1Z"/><path class="cls-1" d="M30.56,32.1a4.39,4.39,0,1,1-4.38-4.39A4.39,4.39,0,0,1,30.56,32.1Z"/></g></g></g></svg>