<svg xmlns="http://www.w3.org/2000/svg" viewBox="0 0 37.44 38.24"><defs><style>.cls-1{fill:#fff;}</style></defs><title>rain</title><g id="Layer_2" data-name="Layer 2"><g id="icons"><g id="soft_rain" data-name="soft rain"><path class="cls-1" d="M29,23.4a8.45,8.45,0,1,0-1.9-16.67A9.47,9.47,0,0,0,8.56,9.47c0,.19,0,.38,0,.57A7,7,0,0,0,6.8,9.8a6.8,6.8,0,0,0,0,13.6Z"/><path class="cls-1" d="M6.74,32.37c-1.52,1.2-1.1,3.69.37,5s4,1.31,5-.37C13.24,34.9,15.13,28,15.13,28S8.59,30.9,6.74,32.37Z"/><path class="cls-1" d="M20.49,32.37c-1.52,1.2-1.1,3.69.37,5s4,1.31,4.95-.37C27,34.9,28.87,28,28.87,28S22.34,30.9,20.49,32.37Z"/></g></g></g></svg>