<svg xmlns="http://www.w3.org/2000/svg" viewBox="0 0 51.79 27.94"><defs><style>.cls-1{fill:#fff;}</style></defs><title>partly-cloudy-night</title><g id="Layer_2" data-name="Layer 2"><g id="icons"><g id="night_cloudi" data-name="night cloudi"><path class="cls-1" d="M29,27.94a8.45,8.45,0,1,0-1.9-16.67A9.47,9.47,0,0,0,8.55,14c0,.2,0,.39,0,.58a6.54,6.54,0,0,0-1.78-.25,6.8,6.8,0,0,0,0,13.6Z"/><path class="cls-1" d="M49,17.49A11.89,11.89,0,0,1,38.55,0a11.86,11.86,0,0,0-9,9.91,9.58,9.58,0,0,1,8.4,13,12,12,0,0,0,3.36.49,11.88,11.88,0,0,0,10.47-6.28A12,12,0,0,1,49,17.49Z"/></g></g></g></svg>