<svg xmlns="http://www.w3.org/2000/svg" viewBox="0 0 35.9 37.52"><defs><style>.cls-1{fill:#fff;}</style></defs><title>wind</title><g id="Layer_2" data-name="Layer 2"><g id="icons"><g id="wind"><path class="cls-1" d="M1.29,37.52A1.28,1.28,0,0,1,0,36.24V1.29a1.29,1.29,0,1,1,2.57,0v35A1.28,1.28,0,0,1,1.29,37.52Z"/><polygon class="cls-1" points="18.32 17.29 23.3 16.71 23.3 3.24 18.32 2.66 18.32 17.29"/><path class="cls-1" d="M33.57,4.43l-3.25-.38V15.9l3.25-.38a2.7,2.7,0,0,0,2.33-2.61V7A2.7,2.7,0,0,0,33.57,4.43Z"/><path class="cls-1" d="M11.3,1.84,8,1.46A2,2,0,0,0,5.67,3.53V16.42A2,2,0,0,0,8,18.49l3.3-.38Z"/></g></g></g></svg>