<svg xmlns="http://www.w3.org/2000/svg" viewBox="0 0 43.43 43.43"><defs><style>.cls-1{fill:#fff;}</style></defs><title>clear-day</title><g id="Layer_2" data-name="Layer 2"><g id="icons"><g id="sun"><path class="cls-1" d="M32.38,20.15a10.77,10.77,0,1,1-12.23-9.09A10.79,10.79,0,0,1,32.38,20.15Z"/><path class="cls-1" d="M21.63,0A1.67,1.67,0,0,0,20,1.69V6.22a1.68,1.68,0,1,0,3.36,0V1.67A1.68,1.68,0,0,0,21.63,0Z"/><path class="cls-1" d="M21.8,43.43a1.68,1.68,0,0,0,1.68-1.69l0-4.53a1.68,1.68,0,0,0-3.36,0v4.54A1.68,1.68,0,0,0,21.8,43.43Z"/><path class="cls-1" d="M0,21.8a1.69,1.69,0,0,0,1.69,1.68l4.53,0a1.68,1.68,0,1,0,0-3.36H1.67A1.68,1.68,0,0,0,0,21.8Z"/><path class="cls-1" d="M43.43,21.63A1.66,1.66,0,0,0,41.74,20H37.21a1.68,1.68,0,0,0,0,3.36h4.54A1.67,1.67,0,0,0,43.43,21.63Z"/><path class="cls-1" d="M6.3,6.42a1.69,1.69,0,0,0,0,2.38L9.53,12A1.68,1.68,0,1,0,11.89,9.6L8.68,6.41A1.68,1.68,0,0,0,6.3,6.42Z"/><path class="cls-1" d="M37.13,37a1.68,1.68,0,0,0,0-2.38L33.9,31.44a1.68,1.68,0,0,0-2.36,2.39L34.75,37A1.68,1.68,0,0,0,37.13,37Z"/><path class="cls-1" d="M6.42,37.13a1.68,1.68,0,0,0,2.38,0L12,33.9a1.68,1.68,0,0,0-2.38-2.36l-3.2,3.21A1.68,1.68,0,0,0,6.42,37.13Z"/><path class="cls-1" d="M37,6.3a1.67,1.67,0,0,0-2.37,0l-3.2,3.22a1.68,1.68,0,1,0,2.39,2.36L37,8.68A1.68,1.68,0,0,0,37,6.3Z"/></g></g></g></svg>