<svg xmlns="http://www.w3.org/2000/svg" viewBox="0 0 37.44 38.27"><defs><style>.cls-1{fill:#fff;}</style></defs><title>sleet</title><g id="Layer_2" data-name="Layer 2"><g id="icons"><g id="rain_and_snow" data-name="rain and snow"><path class="cls-1" d="M29,23.4a8.45,8.45,0,1,0-1.9-16.67A9.47,9.47,0,0,0,8.55,9.47c0,.19,0,.38,0,.57A7,7,0,0,0,6.8,9.8a6.8,6.8,0,0,0,0,13.6Z"/><path class="cls-1" d="M22.73,32.4c-1.52,1.2-1.1,3.69.37,5s4,1.31,4.95-.37c1.18-2,3.07-8.94,3.07-8.94S24.58,30.93,22.73,32.4Z"/><path class="cls-1" d="M15.56,32.3H13.42l1.51-1.51a.85.85,0,1,0-1.2-1.2L12.22,31.1V29a.85.85,0,1,0-1.7,0V31.1L9,29.59a.85.85,0,1,0-1.2,1.2L9.31,32.3H7.17a.85.85,0,0,0,0,1.7H9.31L7.8,35.52A.85.85,0,1,0,9,36.72l1.52-1.51v2.14a.85.85,0,0,0,1.7,0V35.21l1.51,1.51a.85.85,0,0,0,1.2,0,.83.83,0,0,0,0-1.2L13.42,34h2.14a.85.85,0,0,0,0-1.7Z"/></g></g></g></svg>