<svg xmlns="http://www.w3.org/2000/svg" viewBox="0 0 37.44 39.51"><defs><style>.cls-1{fill:#fff;}</style></defs><title>snow</title><g id="Layer_2" data-name="Layer 2"><g id="icons"><g id="snowy"><path class="cls-1" d="M29,23.4a8.45,8.45,0,1,0-1.9-16.67A9.47,9.47,0,0,0,8.55,9.47c0,.19,0,.38,0,.57A7,7,0,0,0,6.8,9.8a6.8,6.8,0,0,0,0,13.6Z"/><path class="cls-1" d="M23.76,32.42H21.19L23,30.6a1,1,0,0,0-1.45-1.45L19.74,31V28.39a1,1,0,0,0-2,0V31l-1.82-1.82a1,1,0,0,0-1.44,0,1,1,0,0,0,0,1.45l1.82,1.82H13.67a1,1,0,1,0,0,2h2.58l-1.82,1.82a1,1,0,0,0,0,1.45,1,1,0,0,0,1.44,0l1.82-1.82v2.58a1,1,0,0,0,2,0V35.91l1.82,1.82A1,1,0,0,0,23,36.28l-1.82-1.82h2.57a1,1,0,1,0,0-2Z"/></g></g></g></svg>