<?xml version="1.0" encoding="iso-8859-1"?>
<!-- Generator: Adobe Illustrator 19.0.0, SVG Export Plug-In . SVG Version: 6.00 Build 0)  -->
<svg version="1.1" id="Capa_1" xmlns="http://www.w3.org/2000/svg" xmlns:xlink="http://www.w3.org/1999/xlink" x="0px" y="0px"
	 viewBox="0 0 512 512" style="enable-background:new 0 0 512 512;" xml:space="preserve">
 <style>.cls-1{fill:#fff;}</style>
<g>
	<g>
		<path  class='cls-1' d="M508.215,242.027C488.153,126.808,391.085,38.446,272,31.456V15c0-8.284-6.716-15-15-15s-15,6.716-15,15v16.454
			C123.324,38.385,24.047,126.289,3.789,242.021C0.76,247.392,0,252.375,0,256c0,8.284,6.716,15,15,15
			c5.673,0,15.564-3.978,16.84-13.922c0.122-0.953,0.265-1.898,0.399-2.847C38.899,249.012,58.624,241,90,241
			c36.623,0,57.389,10.919,60.011,15.566c0.275,7.244,5.766,14.008,14.983,14.45c8.251,0.381,15.245-5.966,15.676-14.201
			c5.477-4.856,26.468-13.408,61.33-15.391V452c0,33.084,26.916,60,60,60s60-26.916,60-60v-15c0-8.284-6.716-15-15-15
			s-15,6.716-15,15v15c0,16.542-13.458,30-30,30s-30-13.458-30-30V241.436c33.889,1.988,54.101,10.377,59.314,15.145
			c0.002,0.051,0.005,0.101,0.008,0.152c0.375,8.038,7.009,14.301,14.972,14.301c9.453,0,15.41-6.96,15.695-14.467
			C364.611,251.919,385.377,241,422,241c31.377,0,51.102,8.012,57.761,13.231c0.125,0.88,0.258,1.756,0.373,2.64
			C481.357,266.348,490.892,271,497,271c8.284,0,15-6.716,15-15C512,252.376,511.24,247.396,508.215,242.027z M153.128,222.814
			C134.639,214.233,110.699,211,90,211c-17.884,0-35.042,2.338-49.391,6.659c23.604-73.663,84.402-130.164,159.41-149.465
			C171.81,109.464,158.238,172.967,153.128,222.814z M257,211c-23.685,0-51.567,2.977-73.625,11.025
			C194.427,121.045,229.781,61,257,61c28.22,0,61.176,63.224,71.637,160.675C308.972,214.427,282.93,211,257,211z M422,211
			c-20.611,0-44.54,3.205-63.085,11.794c-4.929-49.387-17.905-113.249-45.411-154.573c74.232,19.328,134.471,75.821,157.925,149.449
			C457.072,213.343,439.9,211,422,211z"/>
	</g>
</g>
<g>
</g>
<g>
</g>
<g>
</g>
<g>
</g>
<g>
</g>
<g>
</g>
<g>
</g>
<g>
</g>
<g>
</g>
<g>
</g>
<g>
</g>
<g>
</g>
<g>
</g>
<g>
</g>
<g>
</g>
</svg>
